<?xml version="1.0" standalone="no"?>
<!DOCTYPE svg PUBLIC "-//W3C//DTD SVG 20010904//EN"
 "http://www.w3.org/TR/2001/REC-SVG-20010904/DTD/svg10.dtd">
<svg version="1.0" xmlns="http://www.w3.org/2000/svg"
 width="512.000000pt" height="512.000000pt" viewBox="0 0 512.000000 512.000000"
 preserveAspectRatio="xMidYMid meet">
<metadata>
Created by potrace 1.16, written by Peter Selinger 2001-2019
</metadata>
<g transform="translate(0.000000,512.000000) scale(0.100000,-0.100000)"
fill='#f77f00' stroke="none">
<path d="M2310 5114 c-613 -73 -1108 -303 -1534 -714 -398 -383 -650 -866
-749 -1430 -19 -109 -21 -162 -21 -410 0 -248 2 -301 21 -410 94 -539 320
-987 693 -1374 383 -397 866 -650 1430 -749 109 -19 162 -21 410 -21 313 0
407 10 653 73 881 228 1600 947 1828 1828 63 246 73 340 73 653 0 313 -10 407
-73 653 -228 881 -946 1600 -1828 1828 -226 58 -334 71 -613 74 -140 2 -271 1
-290 -1z m530 -208 c532 -67 998 -293 1378 -669 197 -194 335 -386 457 -632
165 -335 232 -603 242 -972 12 -420 -64 -768 -243 -1126 -184 -365 -472 -691
-813 -917 -387 -257 -830 -390 -1301 -390 -646 0 -1232 248 -1686 712 -181
185 -295 342 -410 562 -180 346 -264 692 -264 1086 0 394 84 740 264 1086 122
235 258 416 458 609 378 368 843 589 1373 654 115 14 421 12 545 -3z"/>
<path d="M2275 4704 c-480 -65 -908 -278 -1252 -623 -404 -406 -623 -940 -623
-1521 0 -322 58 -596 186 -885 163 -365 439 -689 782 -918 80 -53 261 -152
266 -145 3 3 67 1246 66 1289 0 22 -7 28 -42 38 -275 80 -471 322 -544 670
-62 300 -20 585 118 806 171 272 439 430 670 394 224 -35 445 -214 572 -464
76 -150 107 -283 107 -462 -1 -327 -115 -629 -303 -798 -67 -60 -119 -90 -226
-130 l-87 -33 3 -54 c34 -692 63 -1252 68 -1320 l6 -87 67 -15 c265 -60 617
-61 901 -1 68 14 239 63 240 68 5 24 67 1293 64 1296 -3 3 -35 15 -70 28 -98
32 -170 79 -261 169 -114 113 -118 128 -116 424 2 268 39 719 104 1260 16 140
11 130 79 130 l60 0 0 -725 0 -725 75 0 75 0 0 725 0 725 65 0 65 0 0 -725 0
-725 70 0 70 0 0 725 0 725 75 0 75 0 0 -725 0 -725 70 0 70 0 0 725 0 725 45
0 c51 0 48 6 64 -130 65 -541 102 -992 104 -1260 2 -296 -2 -311 -116 -424
-92 -90 -161 -136 -264 -171 -37 -13 -69 -30 -71 -37 -4 -21 56 -1099 61
-1105 9 -8 202 123 295 201 407 340 660 778 757 1311 22 122 31 459 16 595
-57 492 -273 939 -622 1289 -238 237 -527 418 -834 520 -238 79 -446 112 -708
110 -95 -1 -217 -7 -272 -15z"/>
<path d="M1350 3193 c-70 -89 -120 -256 -127 -430 -5 -113 -4 -128 22 -210 47
-152 100 -248 185 -333 106 -106 210 -157 210 -103 0 8 -20 41 -44 72 -72 94
-111 167 -167 321 l-54 145 0 185 c0 161 3 196 23 269 17 64 20 86 11 97 -17
21 -35 17 -59 -13z"/>
</g>
</svg>
